<mxfile host="app.diagrams.net" agent="Mozilla/5.0 (Windows NT 10.0; Win64; x64; rv:132.0) Gecko/20100101 Firefox/132.0" version="24.8.3">
  <diagram name="Page-1" id="5_of2_U26wpC8dFNn5IA">
    <mxGraphModel dx="1254" dy="740" grid="1" gridSize="10" guides="1" tooltips="1" connect="1" arrows="1" fold="1" page="1" pageScale="1" pageWidth="850" pageHeight="1100" math="0" shadow="0">
      <root>
        <mxCell id="0" />
        <mxCell id="1" parent="0" />
        <mxCell id="hp0uwx8hQlhVBx3-Il7H-50" value="" style="rounded=0;whiteSpace=wrap;html=1;" vertex="1" parent="1">
          <mxGeometry x="170" y="279.6" width="640" height="450.4" as="geometry" />
        </mxCell>
        <mxCell id="hp0uwx8hQlhVBx3-Il7H-34" value="" style="whiteSpace=wrap;html=1;aspect=fixed;fillColor=#d5e8d4;strokeColor=#82b366;opacity=70;gradientColor=#97d077;" vertex="1" parent="1">
          <mxGeometry x="206" y="496" width="208" height="208" as="geometry" />
        </mxCell>
        <mxCell id="hp0uwx8hQlhVBx3-Il7H-48" value="" style="edgeStyle=orthogonalEdgeStyle;rounded=0;orthogonalLoop=1;jettySize=auto;html=1;entryX=1;entryY=0.5;entryDx=0;entryDy=0;" edge="1" parent="1" source="hp0uwx8hQlhVBx3-Il7H-12" target="hp0uwx8hQlhVBx3-Il7H-34">
          <mxGeometry relative="1" as="geometry">
            <mxPoint x="418" y="557" as="targetPoint" />
          </mxGeometry>
        </mxCell>
        <mxCell id="hp0uwx8hQlhVBx3-Il7H-12" value="" style="whiteSpace=wrap;html=1;aspect=fixed;fillColor=#dae8fc;strokeColor=#6c8ebf;gradientColor=#0078F0;opacity=70;" vertex="1" parent="1">
          <mxGeometry x="478" y="375.15999999999997" width="294" height="294" as="geometry" />
        </mxCell>
        <mxCell id="hp0uwx8hQlhVBx3-Il7H-1" value="" style="image;aspect=fixed;html=1;points=[];align=center;fontSize=12;image=img/lib/azure2/general/Cost_Management_and_Billing.svg;" vertex="1" parent="1">
          <mxGeometry x="346.5" y="535.2900000000001" width="47" height="47" as="geometry" />
        </mxCell>
        <mxCell id="hp0uwx8hQlhVBx3-Il7H-71" value="" style="edgeStyle=orthogonalEdgeStyle;rounded=0;orthogonalLoop=1;jettySize=auto;html=1;entryX=0.006;entryY=0.471;entryDx=0;entryDy=0;entryPerimeter=0;" edge="1" parent="1" source="hp0uwx8hQlhVBx3-Il7H-2" target="hp0uwx8hQlhVBx3-Il7H-26">
          <mxGeometry relative="1" as="geometry">
            <mxPoint x="573" y="480.15999999999997" as="targetPoint" />
            <Array as="points" />
          </mxGeometry>
        </mxCell>
        <mxCell id="hp0uwx8hQlhVBx3-Il7H-2" value="" style="image;aspect=fixed;html=1;points=[];align=center;fontSize=12;image=img/lib/azure2/app_services/App_Services.svg;shadow=0;imageBackground=none;imageBorder=none;" vertex="1" parent="1">
          <mxGeometry x="507" y="455.15999999999997" width="50" height="50" as="geometry" />
        </mxCell>
        <mxCell id="hp0uwx8hQlhVBx3-Il7H-4" value="" style="image;aspect=fixed;html=1;points=[];align=center;fontSize=12;image=img/lib/azure2/databases/SQL_Database.svg;" vertex="1" parent="1">
          <mxGeometry x="699.63" y="456.15999999999997" width="36.75" height="49" as="geometry" />
        </mxCell>
        <mxCell id="hp0uwx8hQlhVBx3-Il7H-86" value="" style="edgeStyle=orthogonalEdgeStyle;rounded=0;orthogonalLoop=1;jettySize=auto;html=1;entryX=-0.004;entryY=0.377;entryDx=0;entryDy=0;entryPerimeter=0;" edge="1" parent="1" source="hp0uwx8hQlhVBx3-Il7H-6" target="hp0uwx8hQlhVBx3-Il7H-57">
          <mxGeometry relative="1" as="geometry" />
        </mxCell>
        <mxCell id="hp0uwx8hQlhVBx3-Il7H-6" value="EntraID" style="image;aspect=fixed;html=1;points=[];align=center;fontSize=12;image=img/lib/azure2/identity/Managed_Identities.svg;" vertex="1" parent="1">
          <mxGeometry x="69.99999999999994" y="355.30000000000007" width="65.8" height="63.86" as="geometry" />
        </mxCell>
        <mxCell id="hp0uwx8hQlhVBx3-Il7H-7" value="" style="image;aspect=fixed;html=1;points=[];align=center;fontSize=12;image=img/lib/azure2/storage/Storage_Accounts.svg;" vertex="1" parent="1">
          <mxGeometry x="605.5" y="573.16" width="55" height="44" as="geometry" />
        </mxCell>
        <mxCell id="hp0uwx8hQlhVBx3-Il7H-8" value="" style="image;aspect=fixed;html=1;points=[];align=center;fontSize=12;image=img/lib/azure2/security/Key_Vaults.svg;" vertex="1" parent="1">
          <mxGeometry x="718" y="388.65999999999997" width="41" height="41" as="geometry" />
        </mxCell>
        <mxCell id="hp0uwx8hQlhVBx3-Il7H-9" value="" style="image;aspect=fixed;html=1;points=[];align=center;fontSize=12;image=img/lib/azure2/management_governance/Monitor.svg;" vertex="1" parent="1">
          <mxGeometry x="289" y="615" width="42" height="42" as="geometry" />
        </mxCell>
        <mxCell id="hp0uwx8hQlhVBx3-Il7H-10" value="" style="image;aspect=fixed;html=1;points=[];align=center;fontSize=12;image=img/lib/azure2/devops/Application_Insights.svg;" vertex="1" parent="1">
          <mxGeometry x="238" y="553" width="33.17" height="47.5" as="geometry" />
        </mxCell>
        <mxCell id="hp0uwx8hQlhVBx3-Il7H-17" value="" style="image;sketch=0;aspect=fixed;html=1;points=[];align=center;fontSize=12;image=img/lib/mscae/ResourceGroup.svg;" vertex="1" parent="1">
          <mxGeometry x="502" y="399.15999999999997" width="25" height="20" as="geometry" />
        </mxCell>
        <mxCell id="hp0uwx8hQlhVBx3-Il7H-18" value="&lt;i&gt;&lt;b&gt;SC1&lt;/b&gt;&lt;/i&gt;" style="text;strokeColor=none;align=center;fillColor=none;html=1;verticalAlign=middle;whiteSpace=wrap;rounded=0;" vertex="1" parent="1">
          <mxGeometry x="518" y="394.15999999999997" width="60" height="30" as="geometry" />
        </mxCell>
        <mxCell id="hp0uwx8hQlhVBx3-Il7H-19" value="&lt;div&gt;Software Product&lt;/div&gt;" style="text;strokeColor=none;align=center;fillColor=none;html=1;verticalAlign=middle;whiteSpace=wrap;rounded=0;" vertex="1" parent="1">
          <mxGeometry x="502" y="505.15999999999997" width="60" height="30" as="geometry" />
        </mxCell>
        <mxCell id="hp0uwx8hQlhVBx3-Il7H-20" value="User Database" style="text;strokeColor=none;align=center;fillColor=none;html=1;verticalAlign=middle;whiteSpace=wrap;rounded=0;" vertex="1" parent="1">
          <mxGeometry x="688" y="505.15999999999997" width="60" height="30" as="geometry" />
        </mxCell>
        <mxCell id="hp0uwx8hQlhVBx3-Il7H-23" value="" style="image;aspect=fixed;html=1;points=[];align=center;fontSize=12;image=img/lib/azure2/storage/Storage_Accounts.svg;" vertex="1" parent="1">
          <mxGeometry x="673.4" y="573.16" width="55" height="44" as="geometry" />
        </mxCell>
        <mxCell id="hp0uwx8hQlhVBx3-Il7H-24" value="Archive Blobs" style="text;strokeColor=none;align=center;fillColor=none;html=1;verticalAlign=middle;whiteSpace=wrap;rounded=0;" vertex="1" parent="1">
          <mxGeometry x="603" y="619.16" width="60" height="30" as="geometry" />
        </mxCell>
        <mxCell id="hp0uwx8hQlhVBx3-Il7H-25" value="Storage Blobs" style="text;strokeColor=none;align=center;fillColor=none;html=1;verticalAlign=middle;whiteSpace=wrap;rounded=0;" vertex="1" parent="1">
          <mxGeometry x="670.9" y="619.16" width="60" height="30" as="geometry" />
        </mxCell>
        <mxCell id="hp0uwx8hQlhVBx3-Il7H-28" style="edgeStyle=orthogonalEdgeStyle;rounded=0;orthogonalLoop=1;jettySize=auto;html=1;" edge="1" parent="1" source="hp0uwx8hQlhVBx3-Il7H-26" target="hp0uwx8hQlhVBx3-Il7H-4">
          <mxGeometry relative="1" as="geometry" />
        </mxCell>
        <mxCell id="hp0uwx8hQlhVBx3-Il7H-26" value="" style="image;aspect=fixed;html=1;points=[];align=center;fontSize=12;image=img/lib/azure2/app_services/App_Services.svg;shadow=0;imageBackground=none;imageBorder=none;" vertex="1" parent="1">
          <mxGeometry x="583" y="456.15999999999997" width="50" height="50" as="geometry" />
        </mxCell>
        <mxCell id="hp0uwx8hQlhVBx3-Il7H-27" value="API" style="text;strokeColor=none;align=center;fillColor=none;html=1;verticalAlign=middle;whiteSpace=wrap;rounded=0;" vertex="1" parent="1">
          <mxGeometry x="578" y="506.15999999999997" width="60" height="30" as="geometry" />
        </mxCell>
        <mxCell id="hp0uwx8hQlhVBx3-Il7H-29" value="" style="image;aspect=fixed;html=1;points=[];align=center;fontSize=12;image=img/lib/azure2/compute/Function_Apps.svg;" vertex="1" parent="1">
          <mxGeometry x="534" y="561.28" width="38" height="33.53" as="geometry" />
        </mxCell>
        <mxCell id="hp0uwx8hQlhVBx3-Il7H-33" value="MFA" style="text;strokeColor=none;align=center;fillColor=none;html=1;verticalAlign=middle;whiteSpace=wrap;rounded=0;" vertex="1" parent="1">
          <mxGeometry x="707.5" y="424.15999999999997" width="60" height="30" as="geometry" />
        </mxCell>
        <mxCell id="hp0uwx8hQlhVBx3-Il7H-36" value="" style="image;aspect=fixed;html=1;points=[];align=center;fontSize=12;image=img/lib/azure2/devops/Change_Analysis.svg;" vertex="1" parent="1">
          <mxGeometry x="226" y="511.32" width="21.78" height="21.68" as="geometry" />
        </mxCell>
        <mxCell id="hp0uwx8hQlhVBx3-Il7H-37" value="&lt;i&gt;&lt;b&gt;Monitoring&lt;/b&gt;&lt;/i&gt;" style="text;strokeColor=none;align=center;fillColor=none;html=1;verticalAlign=middle;whiteSpace=wrap;rounded=0;" vertex="1" parent="1">
          <mxGeometry x="241" y="507.16" width="90" height="30" as="geometry" />
        </mxCell>
        <mxCell id="hp0uwx8hQlhVBx3-Il7H-39" value="Performance Monitor" style="text;strokeColor=none;align=center;fillColor=none;html=1;verticalAlign=middle;whiteSpace=wrap;rounded=0;" vertex="1" parent="1">
          <mxGeometry x="280" y="657" width="60" height="30" as="geometry" />
        </mxCell>
        <mxCell id="hp0uwx8hQlhVBx3-Il7H-40" value="&lt;div&gt;Cost Estimation&lt;/div&gt;" style="text;strokeColor=none;align=center;fillColor=none;html=1;verticalAlign=middle;whiteSpace=wrap;rounded=0;" vertex="1" parent="1">
          <mxGeometry x="340" y="590.72" width="60" height="30" as="geometry" />
        </mxCell>
        <mxCell id="hp0uwx8hQlhVBx3-Il7H-87" value="" style="edgeStyle=orthogonalEdgeStyle;rounded=0;orthogonalLoop=1;jettySize=auto;html=1;entryX=0.003;entryY=0.414;entryDx=0;entryDy=0;entryPerimeter=0;startArrow=classic;startFill=1;" edge="1" parent="1" source="hp0uwx8hQlhVBx3-Il7H-57" target="hp0uwx8hQlhVBx3-Il7H-12">
          <mxGeometry relative="1" as="geometry" />
        </mxCell>
        <mxCell id="hp0uwx8hQlhVBx3-Il7H-57" value="" style="rounded=0;whiteSpace=wrap;html=1;gradientColor=#ffd966;gradientDirection=south;fillColor=#fff2cc;strokeColor=#d6b656;" vertex="1" parent="1">
          <mxGeometry x="209" y="340" width="205" height="126" as="geometry" />
        </mxCell>
        <mxCell id="hp0uwx8hQlhVBx3-Il7H-41" value="Insights" style="text;strokeColor=none;align=center;fillColor=none;html=1;verticalAlign=middle;whiteSpace=wrap;rounded=0;" vertex="1" parent="1">
          <mxGeometry x="224.57999999999998" y="597.75" width="60" height="30" as="geometry" />
        </mxCell>
        <mxCell id="hp0uwx8hQlhVBx3-Il7H-44" value="" style="image;sketch=0;aspect=fixed;html=1;points=[];align=center;fontSize=12;image=img/lib/mscae/Azure_Firewall.svg;" vertex="1" parent="1">
          <mxGeometry x="254" y="384" width="40" height="40" as="geometry" />
        </mxCell>
        <mxCell id="hp0uwx8hQlhVBx3-Il7H-46" value="" style="verticalLabelPosition=bottom;html=1;verticalAlign=top;align=center;strokeColor=none;fillColor=#00BEF2;shape=mxgraph.azure.virtual_network;pointerEvents=1;" vertex="1" parent="1">
          <mxGeometry x="201.78" y="296" width="50" height="27.500000000000004" as="geometry" />
        </mxCell>
        <mxCell id="hp0uwx8hQlhVBx3-Il7H-52" value="&lt;i&gt;&lt;b&gt;Virtual Network&lt;/b&gt;&lt;/i&gt;" style="text;strokeColor=none;align=center;fillColor=none;html=1;verticalAlign=middle;whiteSpace=wrap;rounded=0;" vertex="1" parent="1">
          <mxGeometry x="251.78" y="294.75" width="103" height="30" as="geometry" />
        </mxCell>
        <mxCell id="hp0uwx8hQlhVBx3-Il7H-54" value="" style="image;aspect=fixed;html=1;points=[];align=center;fontSize=12;image=img/lib/azure2/networking/Network_Security_Groups.svg;" vertex="1" parent="1">
          <mxGeometry x="338.36" y="386" width="31.29" height="38" as="geometry" />
        </mxCell>
        <mxCell id="hp0uwx8hQlhVBx3-Il7H-55" value="" style="image;aspect=fixed;perimeter=ellipsePerimeter;html=1;align=center;shadow=0;dashed=0;spacingTop=3;image=img/lib/active_directory/security.svg;" vertex="1" parent="1">
          <mxGeometry x="222.10000000000002" y="346" width="18.9" height="30" as="geometry" />
        </mxCell>
        <mxCell id="hp0uwx8hQlhVBx3-Il7H-56" value="&lt;div&gt;&lt;i&gt;&lt;b&gt;Security&lt;/b&gt;&lt;/i&gt;&lt;/div&gt;" style="text;strokeColor=none;align=center;fillColor=none;html=1;verticalAlign=middle;whiteSpace=wrap;rounded=0;" vertex="1" parent="1">
          <mxGeometry x="244" y="346" width="90" height="30" as="geometry" />
        </mxCell>
        <mxCell id="hp0uwx8hQlhVBx3-Il7H-58" value="NSG" style="text;strokeColor=none;align=center;fillColor=none;html=1;verticalAlign=middle;whiteSpace=wrap;rounded=0;" vertex="1" parent="1">
          <mxGeometry x="324" y="424" width="60" height="30" as="geometry" />
        </mxCell>
        <mxCell id="hp0uwx8hQlhVBx3-Il7H-59" value="Azure Firewall" style="text;strokeColor=none;align=center;fillColor=none;html=1;verticalAlign=middle;whiteSpace=wrap;rounded=0;" vertex="1" parent="1">
          <mxGeometry x="244" y="424" width="60" height="30" as="geometry" />
        </mxCell>
        <mxCell id="hp0uwx8hQlhVBx3-Il7H-63" value="Azure Functions" style="text;strokeColor=none;align=center;fillColor=none;html=1;verticalAlign=middle;whiteSpace=wrap;rounded=0;" vertex="1" parent="1">
          <mxGeometry x="523" y="599.04" width="60" height="30" as="geometry" />
        </mxCell>
      </root>
    </mxGraphModel>
  </diagram>
</mxfile>
